# xmcd
#
# Track frame offsets:
#	150
#	16452
#	30755
#	49025
#	62965
#	74676
#	88755
#	105129
#	122627
#	138776
#	153630
#	168111
#
# Disc length: 2457 seconds
#
# Revision: 1
# Processed by: cddbd v1.5.2PL0 Copyright (c) Steve Scherf et al.
# Submitted via: audiograbber 1.83.01
#
DISCID=9309970c
DTITLE=The Greatest Country Music Recordings Of All Time - Record 54
DYEAR=1900
DGENRE=
TTITLE0=Nitty Gritty Dirt Band - Mr. Bojangles
TTITLE1=Doug Sahm - (Is Anybody Going To) San Antone 
TTITLE2=Ray Wylie Hummard - Up Against The Wall Redneck Mother
TTITLE3=Asleep At The Wheel - Miles And Miles Of Texas
TTITLE4=Commander Cody - That's What I Like About The South
TTITLE5=Amazing Rythm Aces - I Musta Died And Gone To Texas
TTITLE6=Steve Young - Seven Bridges Road
TTITLE7=Juice Newton - If I Ever
TTITLE8=Rodney Crowell - Queen Of Hearts
TTITLE9=Rosanne Cash - Seven Year Ache
TTITLE10=Alabama - Old Flame
TTITLE11=Chalie Daniels Band - The Devil Went Down To Georgia
EXTD=
EXTT0=
EXTT1=
EXTT2=
EXTT3=
EXTT4=
EXTT5=
EXTT6=
EXTT7=
EXTT8=
EXTT9=
EXTT10=
EXTT11=
PLAYORDER=
